<?xml version="1.0" standalone="no"?>
<!DOCTYPE svg PUBLIC "-//W3C//DTD SVG 20010904//EN"
 "http://www.w3.org/TR/2001/REC-SVG-20010904/DTD/svg10.dtd">
<svg version="1.0" xmlns="http://www.w3.org/2000/svg"
 width="512.000000pt" height="512.000000pt" viewBox="0 0 512.000000 512.000000"
 preserveAspectRatio="xMidYMid meet">

<g transform="translate(0.000000,512.000000) scale(0.100000,-0.100000)"
fill="#000000" stroke="none">
<path d="M2384 5109 c-829 -52 -1597 -527 -2025 -1251 -253 -427 -387 -970
-354 -1440 7 -105 7 -107 33 -112 169 -35 964 -114 1383 -137 l227 -13 31 -75
c115 -284 382 -501 696 -567 139 -29 350 -16 488 31 259 88 478 291 578 536
l31 75 227 13 c259 14 603 42 871 72 211 23 532 68 540 75 11 11 5 503 -6 514
-9 9 -37 8 -109 -3 -69 -10 -98 -11 -100 -3 -2 6 -11 61 -20 121 -66 440 -238
836 -523 1205 -36 47 -127 146 -202 220 -403 403 -896 647 -1465 725 -156 22
-170 22 -301 14z m350 -2267 c132 -62 224 -183 248 -326 29 -178 -71 -365
-241 -449 -62 -30 -71 -32 -181 -32 -109 0 -118 2 -181 32 -126 62 -215 180
-241 321 -31 167 64 357 221 441 79 42 121 51 223 47 71 -3 98 -9 152 -34z"/>
</g>
</svg>
